{
  "accessors": [
    {
      "name": "Rectangle001_1_0_positions",
      "componentType": 5126,
      "count": 116,
      "min": [
        -2.8027000427246094,
        1.754699945449829,
        -1.7472000122070312
      ],
      "max": [
        2.8027000427246094,
        4.23859977722168,
        1.7472000122070312
      ],
      "type": "VEC3",
      "bufferView": 0,
      "byteOffset": 0
    },
    {
      "name": "Rectangle001_1_0_normals",
      "componentType": 5126,
      "count": 116,
      "min": [
        -1,
        -0.8533806800842285,
        -0.8258293867111206
      ],
      "max": [
        1,
        0.8793512582778931,
        0.9891814589500427
      ],
      "type": "VEC3",
      "bufferView": 1,
      "byteOffset": 0
    },
    {
      "name": "Rectangle001_1_0_texcoords",
      "componentType": 5126,
      "count": 116,
      "min": [
        -0.871399998664856,
        -0.010900000110268593
      ],
      "max": [
        1.871399998664856,
        1.0109000205993652
      ],
      "type": "VEC2",
      "bufferView": 2,
      "byteOffset": 0
    },
    {
      "name": "Rectangle001_1_0_indices",
      "componentType": 5123,
      "count": 204,
      "min": [
        0
      ],
      "max": [
        115
      ],
      "type": "SCALAR",
      "bufferView": 3,
      "byteOffset": 0
    },
    {
      "name": "Rectangle001_1_1_positions",
      "componentType": 5126,
      "count": 16,
      "min": [
        -2.7427000999450684,
        1.851099967956543,
        -1.6576999425888062
      ],
      "max": [
        2.7427000999450684,
        4.195199966430664,
        1.6900999546051025
      ],
      "type": "VEC3",
      "bufferView": 0,
      "byteOffset": 1392
    },
    {
      "name": "Rectangle001_1_1_normals",
      "componentType": 5126,
      "count": 16,
      "min": [
        0,
        0.8191567659378052,
        0.5735697150230408
      ],
      "max": [
        0,
        0.8191567659378052,
        0.5735697150230408
      ],
      "type": "VEC3",
      "bufferView": 1,
      "byteOffset": 1392
    },
    {
      "name": "Rectangle001_1_1_texcoords",
      "componentType": 5126,
      "count": 16,
      "min": [
        -0.871399998664856,
        -0.010900000110268593
      ],
      "max": [
        1.871399998664856,
        1.0109000205993652
      ],
      "type": "VEC2",
      "bufferView": 2,
      "byteOffset": 928
    },
    {
      "name": "Rectangle001_1_1_indices",
      "componentType": 5123,
      "count": 24,
      "min": [
        0
      ],
      "max": [
        15
      ],
      "type": "SCALAR",
      "bufferView": 3,
      "byteOffset": 408
    },
    {
      "name": "Rectangle002_1_0_positions",
      "componentType": 5126,
      "count": 24,
      "min": [
        2.195499897003174,
        1.8344000577926636,
        -1.603600025177002
      ],
      "max": [
        2.3454999923706055,
        4.046999931335449,
        1.5264999866485596
      ],
      "type": "VEC3",
      "bufferView": 0,
      "byteOffset": 1584
    },
    {
      "name": "Rectangle002_1_0_normals",
      "componentType": 5126,
      "count": 24,
      "min": [
        -1,
        -0.8191567659378052,
        -0.8191567659378052
      ],
      "max": [
        1,
        0.8191567659378052,
        0.8191567659378052
      ],
      "type": "VEC3",
      "bufferView": 1,
      "byteOffset": 1584
    },
    {
      "name": "Rectangle002_1_0_indices",
      "componentType": 5123,
      "count": 36,
      "min": [
        0
      ],
      "max": [
        23
      ],
      "type": "SCALAR",
      "bufferView": 3,
      "byteOffset": 456
    },
    {
      "name": "Line002_1_0_positions",
      "componentType": 5126,
      "count": 24,
      "min": [
        -2.271199941635132,
        1.1448999643325806,
        -1.4530999660491943
      ],
      "max": [
        -2.2211999893188477,
        3.212399959564209,
        -0.40130001306533813
      ],
      "type": "VEC3",
      "bufferView": 0,
      "byteOffset": 1872
    },
    {
      "name": "Line002_1_0_normals",
      "componentType": 5126,
      "count": 24,
      "min": [
        -1,
        -0.8971700072288513,
        -0.8971700668334961
      ],
      "max": [
        1,
        0.8971700668334961,
        0.8971700668334961
      ],
      "type": "VEC3",
      "bufferView": 1,
      "byteOffset": 1872
    },
    {
      "name": "Line002_1_0_indices",
      "componentType": 5123,
      "count": 36,
      "min": [
        0
      ],
      "max": [
        23
      ],
      "type": "SCALAR",
      "bufferView": 3,
      "byteOffset": 528
    },
    {
      "name": "Line003_1_0_positions",
      "componentType": 5126,
      "count": 24,
      "min": [
        -2.271199941635132,
        0.010200000368058681,
        1.198799967765808
      ],
      "max": [
        -2.2211999893188477,
        2.0725998878479004,
        1.2488000392913818
      ],
      "type": "VEC3",
      "bufferView": 0,
      "byteOffset": 2160
    },
    {
      "name": "Line003_1_0_normals",
      "componentType": 5126,
      "count": 24,
      "min": [
        -1,
        -1,
        -1
      ],
      "max": [
        1,
        1,
        1
      ],
      "type": "VEC3",
      "bufferView": 1,
      "byteOffset": 2160
    },
    {
      "name": "Line003_1_0_indices",
      "componentType": 5123,
      "count": 36,
      "min": [
        0
      ],
      "max": [
        23
      ],
      "type": "SCALAR",
      "bufferView": 3,
      "byteOffset": 600
    },
    {
      "name": "Rectangle003_1_0_positions",
      "componentType": 5126,
      "count": 24,
      "min": [
        -2.3208000659942627,
        1.8344000577926636,
        -1.603600025177002
      ],
      "max": [
        -2.170799970626831,
        4.046999931335449,
        1.5264999866485596
      ],
      "type": "VEC3",
      "bufferView": 0,
      "byteOffset": 2448
    },
    {
      "name": "Rectangle003_1_0_normals",
      "componentType": 5126,
      "count": 24,
      "min": [
        -1,
        -0.8191567659378052,
        -0.8191567659378052
      ],
      "max": [
        1,
        0.8191567659378052,
        0.8191567659378052
      ],
      "type": "VEC3",
      "bufferView": 1,
      "byteOffset": 2448
    },
    {
      "name": "Rectangle003_1_0_indices",
      "componentType": 5123,
      "count": 36,
      "min": [
        0
      ],
      "max": [
        23
      ],
      "type": "SCALAR",
      "bufferView": 3,
      "byteOffset": 672
    },
    {
      "name": "Line004_1_0_positions",
      "componentType": 5126,
      "count": 24,
      "min": [
        -2.271199941635132,
        0.8813999891281128,
        0.38510000705718994
      ],
      "max": [
        -2.221100091934204,
        2.6364998817443848,
        1.2437000274658203
      ],
      "type": "VEC3",
      "bufferView": 0,
      "byteOffset": 2736
    },
    {
      "name": "Line004_1_0_normals",
      "componentType": 5126,
      "count": 24,
      "min": [
        -1,
        -0.9053279757499695,
        -0.9053460359573364
      ],
      "max": [
        1,
        0.9053279757499695,
        0.9053459763526917
      ],
      "type": "VEC3",
      "bufferView": 1,
      "byteOffset": 2736
    },
    {
      "name": "Line004_1_0_indices",
      "componentType": 5123,
      "count": 36,
      "min": [
        0
      ],
      "max": [
        23
      ],
      "type": "SCALAR",
      "bufferView": 3,
      "byteOffset": 744
    },
    {
      "name": "Line005_1_0_positions",
      "componentType": 5126,
      "count": 24,
      "min": [
        2.2455999851226807,
        0.010200000368058681,
        -1.4566999673843384
      ],
      "max": [
        2.295599937438965,
        3.905400037765503,
        -1.4067000150680542
      ],
      "type": "VEC3",
      "bufferView": 0,
      "byteOffset": 3024
    },
    {
      "name": "Line005_1_0_normals",
      "componentType": 5126,
      "count": 24,
      "min": [
        -1,
        -1,
        -1
      ],
      "max": [
        1,
        1,
        1
      ],
      "type": "VEC3",
      "bufferView": 1,
      "byteOffset": 3024
    },
    {
      "name": "Line005_1_0_indices",
      "componentType": 5123,
      "count": 36,
      "min": [
        0
      ],
      "max": [
        23
      ],
      "type": "SCALAR",
      "bufferView": 3,
      "byteOffset": 816
    },
    {
      "name": "Line001_1_0_positions",
      "componentType": 5126,
      "count": 24,
      "min": [
        -2.271199941635132,
        0.010200000368058681,
        -1.4566999673843384
      ],
      "max": [
        -2.2211999893188477,
        3.905400037765503,
        -1.4067000150680542
      ],
      "type": "VEC3",
      "bufferView": 0,
      "byteOffset": 3312
    },
    {
      "name": "Line001_1_0_normals",
      "componentType": 5126,
      "count": 24,
      "min": [
        -1,
        -1,
        -1
      ],
      "max": [
        1,
        1,
        1
      ],
      "type": "VEC3",
      "bufferView": 1,
      "byteOffset": 3312
    },
    {
      "name": "Line001_1_0_indices",
      "componentType": 5123,
      "count": 36,
      "min": [
        0
      ],
      "max": [
        23
      ],
      "type": "SCALAR",
      "bufferView": 3,
      "byteOffset": 888
    },
    {
      "name": "Line006_1_0_positions",
      "componentType": 5126,
      "count": 24,
      "min": [
        2.2455999851226807,
        0.010200000368058681,
        1.198799967765808
      ],
      "max": [
        2.295599937438965,
        2.0725998878479004,
        1.2488000392913818
      ],
      "type": "VEC3",
      "bufferView": 0,
      "byteOffset": 3600
    },
    {
      "name": "Line006_1_0_normals",
      "componentType": 5126,
      "count": 24,
      "min": [
        -1,
        -1,
        -1
      ],
      "max": [
        1,
        1,
        1
      ],
      "type": "VEC3",
      "bufferView": 1,
      "byteOffset": 3600
    },
    {
      "name": "Line006_1_0_indices",
      "componentType": 5123,
      "count": 36,
      "min": [
        0
      ],
      "max": [
        23
      ],
      "type": "SCALAR",
      "bufferView": 3,
      "byteOffset": 960
    },
    {
      "name": "Line008_1_0_positions",
      "componentType": 5126,
      "count": 24,
      "min": [
        2.2455999851226807,
        1.1448999643325806,
        -1.4530999660491943
      ],
      "max": [
        2.295599937438965,
        3.212399959564209,
        -0.40130001306533813
      ],
      "type": "VEC3",
      "bufferView": 0,
      "byteOffset": 3888
    },
    {
      "name": "Line008_1_0_normals",
      "componentType": 5126,
      "count": 24,
      "min": [
        -1,
        -0.8971700072288513,
        -0.8971700668334961
      ],
      "max": [
        1,
        0.8971700668334961,
        0.8971700668334961
      ],
      "type": "VEC3",
      "bufferView": 1,
      "byteOffset": 3888
    },
    {
      "name": "Line008_1_0_indices",
      "componentType": 5123,
      "count": 36,
      "min": [
        0
      ],
      "max": [
        23
      ],
      "type": "SCALAR",
      "bufferView": 3,
      "byteOffset": 1032
    },
    {
      "name": "Line007_1_0_positions",
      "componentType": 5126,
      "count": 24,
      "min": [
        2.2455999851226807,
        0.8813999891281128,
        0.38510000705718994
      ],
      "max": [
        2.295599937438965,
        2.6364998817443848,
        1.2437000274658203
      ],
      "type": "VEC3",
      "bufferView": 0,
      "byteOffset": 4176
    },
    {
      "name": "Line007_1_0_normals",
      "componentType": 5126,
      "count": 24,
      "min": [
        -1,
        -0.9053279757499695,
        -0.9053279757499695
      ],
      "max": [
        1,
        0.9053279757499695,
        0.9053279757499695
      ],
      "type": "VEC3",
      "bufferView": 1,
      "byteOffset": 4176
    },
    {
      "name": "Line007_1_0_indices",
      "componentType": 5123,
      "count": 36,
      "min": [
        0
      ],
      "max": [
        23
      ],
      "type": "SCALAR",
      "bufferView": 3,
      "byteOffset": 1104
    }
  ],
  "asset": {
    "generator": "obj2gltf",
    "version": "2.0"
  },
  "buffers": [
    {
      "name": "1",
      "byteLength": 517632,
      "uri": "data:application/octet-stream;base64,"
    }
  ],
  "bufferViews": [
    {
      "name": "bufferView_0",
      "buffer": 0,
      "byteLength": 4464,
      "byteOffset": 0,
      "byteStride": 12,
      "target": 34962
    },
    {
      "name": "bufferView_1",
      "buffer": 0,
      "byteLength": 4464,
      "byteOffset": 4464,
      "byteStride": 12,
      "target": 34962
    },
    {
      "name": "bufferView_2",
      "buffer": 0,
      "byteLength": 1056,
      "byteOffset": 8928,
      "byteStride": 8,
      "target": 34962
    },
    {
      "name": "bufferView_3",
      "buffer": 0,
      "byteLength": 1176,
      "byteOffset": 9984,
      "target": 34963
    },
    {
      "buffer": 0,
      "byteOffset": 11160,
      "byteLength": 506469
    }
  ],
  "images": [
    {
      "name": "7360284files9",
      "mimeType": "image/jpeg",
      "bufferView": 4
    }
  ],
  "materials": [
    {
      "name": "01___Default",
      "pbrMetallicRoughness": {
        "baseColorFactor": [
          0.498,
          0.498,
          0.498,
          1
        ],
        "metallicFactor": 0,
        "roughnessFactor": 0.961
      },
      "emissiveFactor": [
        0,
        0,
        0
      ],
      "alphaMode": "OPAQUE",
      "doubleSided": false
    },
    {
      "name": "02___Default",
      "pbrMetallicRoughness": {
        "baseColorTexture": {
          "index": 0
        },
        "baseColorFactor": [
          1,
          1,
          1,
          1
        ],
        "metallicFactor": 0,
        "roughnessFactor": 0.99
      },
      "emissiveFactor": [
        0,
        0,
        0
      ],
      "alphaMode": "OPAQUE",
      "doubleSided": false
    },
    {
      "name": "01___Default-2",
      "pbrMetallicRoughness": {
        "baseColorFactor": [
          0.498,
          0.498,
          0.498,
          1
        ],
        "metallicFactor": 0,
        "roughnessFactor": 0.961
      },
      "emissiveFactor": [
        0,
        0,
        0
      ],
      "alphaMode": "OPAQUE",
      "doubleSided": false
    }
  ],
  "meshes": [
    {
      "name": "Rectangle001_1",
      "primitives": [
        {
          "attributes": {
            "POSITION": 0,
            "NORMAL": 1,
            "TEXCOORD_0": 2
          },
          "indices": 3,
          "material": 0,
          "mode": 4
        },
        {
          "attributes": {
            "POSITION": 4,
            "NORMAL": 5,
            "TEXCOORD_0": 6
          },
          "indices": 7,
          "material": 1,
          "mode": 4
        }
      ]
    },
    {
      "name": "Rectangle002_1",
      "primitives": [
        {
          "attributes": {
            "POSITION": 8,
            "NORMAL": 9
          },
          "indices": 10,
          "material": 2,
          "mode": 4
        }
      ]
    },
    {
      "name": "Line002_1",
      "primitives": [
        {
          "attributes": {
            "POSITION": 11,
            "NORMAL": 12
          },
          "indices": 13,
          "material": 2,
          "mode": 4
        }
      ]
    },
    {
      "name": "Line003_1",
      "primitives": [
        {
          "attributes": {
            "POSITION": 14,
            "NORMAL": 15
          },
          "indices": 16,
          "material": 2,
          "mode": 4
        }
      ]
    },
    {
      "name": "Rectangle003_1",
      "primitives": [
        {
          "attributes": {
            "POSITION": 17,
            "NORMAL": 18
          },
          "indices": 19,
          "material": 2,
          "mode": 4
        }
      ]
    },
    {
      "name": "Line004_1",
      "primitives": [
        {
          "attributes": {
            "POSITION": 20,
            "NORMAL": 21
          },
          "indices": 22,
          "material": 2,
          "mode": 4
        }
      ]
    },
    {
      "name": "Line005_1",
      "primitives": [
        {
          "attributes": {
            "POSITION": 23,
            "NORMAL": 24
          },
          "indices": 25,
          "material": 2,
          "mode": 4
        }
      ]
    },
    {
      "name": "Line001_1",
      "primitives": [
        {
          "attributes": {
            "POSITION": 26,
            "NORMAL": 27
          },
          "indices": 28,
          "material": 2,
          "mode": 4
        }
      ]
    },
    {
      "name": "Line006_1",
      "primitives": [
        {
          "attributes": {
            "POSITION": 29,
            "NORMAL": 30
          },
          "indices": 31,
          "material": 2,
          "mode": 4
        }
      ]
    },
    {
      "name": "Line008_1",
      "primitives": [
        {
          "attributes": {
            "POSITION": 32,
            "NORMAL": 33
          },
          "indices": 34,
          "material": 2,
          "mode": 4
        }
      ]
    },
    {
      "name": "Line007_1",
      "primitives": [
        {
          "attributes": {
            "POSITION": 35,
            "NORMAL": 36
          },
          "indices": 37,
          "material": 2,
          "mode": 4
        }
      ]
    }
  ],
  "nodes": [
    {
      "name": "Rectangle001",
      "mesh": 0
    },
    {
      "name": "Rectangle002",
      "mesh": 1
    },
    {
      "name": "Line002",
      "mesh": 2
    },
    {
      "name": "Line003",
      "mesh": 3
    },
    {
      "name": "Rectangle003",
      "mesh": 4
    },
    {
      "name": "Line004",
      "mesh": 5
    },
    {
      "name": "Line005",
      "mesh": 6
    },
    {
      "name": "Line001",
      "mesh": 7
    },
    {
      "name": "Line006",
      "mesh": 8
    },
    {
      "name": "Line008",
      "mesh": 9
    },
    {
      "name": "Line007",
      "mesh": 10
    }
  ],
  "samplers": [
    {
      "magFilter": 9729,
      "minFilter": 9986,
      "wrapS": 10497,
      "wrapT": 10497
    }
  ],
  "scene": 0,
  "scenes": [
    {
      "nodes": [
        0,
        1,
        2,
        3,
        4,
        5,
        6,
        7,
        8,
        9,
        10
      ]
    }
  ],
  "textures": [
    {
      "name": "7360284files9",
      "sampler": 0,
      "source": 0
    }
  ]
}
