{
  "accessors": [
    {
      "name": "Line1044_1_0_positions",
      "componentType": 5126,
      "count": 96,
      "min": [
        -8.24489974975586,
        1.8210999965667725,
        -1.7312999963760376
      ],
      "max": [
        7.1666998863220215,
        4.172599792480469,
        2.21560001373291
      ],
      "type": "VEC3",
      "bufferView": 0,
      "byteOffset": 0
    },
    {
      "name": "Line1044_1_0_normals",
      "componentType": 5126,
      "count": 96,
      "min": [
        -1,
        -0.866019070148468,
        -0.866019070148468
      ],
      "max": [
        1,
        0.866019070148468,
        0.866019070148468
      ],
      "type": "VEC3",
      "bufferView": 1,
      "byteOffset": 0
    },
    {
      "name": "Line1044_1_0_texcoords",
      "componentType": 5126,
      "count": 96,
      "min": [
        -0.8762999773025513,
        0
      ],
      "max": [
        1.8762999773025513,
        1
      ],
      "type": "VEC2",
      "bufferView": 2,
      "byteOffset": 0
    },
    {
      "name": "Line1044_1_0_indices",
      "componentType": 5123,
      "count": 144,
      "min": [
        0
      ],
      "max": [
        95
      ],
      "type": "SCALAR",
      "bufferView": 3,
      "byteOffset": 0
    },
    {
      "name": "Rectangle1590_1_0_positions",
      "componentType": 5126,
      "count": 1344,
      "min": [
        -8.266400337219238,
        1.8458000421524048,
        -1.8152999877929688
      ],
      "max": [
        7.16949987411499,
        4.294000148773193,
        2.384000062942505
      ],
      "type": "VEC3",
      "bufferView": 0,
      "byteOffset": 1152
    },
    {
      "name": "Rectangle1590_1_0_normals",
      "componentType": 5126,
      "count": 1344,
      "min": [
        -1,
        -0.866019070148468,
        -0.8696917295455933
      ],
      "max": [
        1,
        0.866019070148468,
        0.866019070148468
      ],
      "type": "VEC3",
      "bufferView": 1,
      "byteOffset": 1152
    },
    {
      "name": "Rectangle1590_1_0_texcoords",
      "componentType": 5126,
      "count": 1344,
      "min": [
        0,
        0.01720000058412552
      ],
      "max": [
        1,
        0.9828000068664551
      ],
      "type": "VEC2",
      "bufferView": 2,
      "byteOffset": 768
    },
    {
      "name": "Rectangle1590_1_0_indices",
      "componentType": 5123,
      "count": 2184,
      "min": [
        0
      ],
      "max": [
        1343
      ],
      "type": "SCALAR",
      "bufferView": 3,
      "byteOffset": 288
    },
    {
      "name": "Rectangle1590_1_1_positions",
      "componentType": 5126,
      "count": 112,
      "min": [
        -8.253399848937988,
        1.8823000192642212,
        -1.7868000268936157
      ],
      "max": [
        7.156499862670898,
        4.2820000648498535,
        2.369499921798706
      ],
      "type": "VEC3",
      "bufferView": 0,
      "byteOffset": 17280
    },
    {
      "name": "Rectangle1590_1_1_normals",
      "componentType": 5126,
      "count": 112,
      "min": [
        0,
        0.866019070148468,
        0.5000110268592834
      ],
      "max": [
        0,
        0.866019070148468,
        0.5000110268592834
      ],
      "type": "VEC3",
      "bufferView": 1,
      "byteOffset": 17280
    },
    {
      "name": "Rectangle1590_1_1_texcoords",
      "componentType": 5126,
      "count": 112,
      "min": [
        0.24959999322891235,
        0.001500000013038516
      ],
      "max": [
        0.7504000067710876,
        0.9988999962806702
      ],
      "type": "VEC2",
      "bufferView": 2,
      "byteOffset": 11520
    },
    {
      "name": "Rectangle1590_1_1_indices",
      "componentType": 5123,
      "count": 168,
      "min": [
        0
      ],
      "max": [
        111
      ],
      "type": "SCALAR",
      "bufferView": 3,
      "byteOffset": 4656
    },
    {
      "name": "Line1046_1_0_positions",
      "componentType": 5126,
      "count": 160,
      "min": [
        -7.785699844360352,
        0.9294000267982483,
        -1.3863999843597412
      ],
      "max": [
        6.627799987792969,
        2.86080002784729,
        1.8040000200271606
      ],
      "type": "VEC3",
      "bufferView": 0,
      "byteOffset": 18624
    },
    {
      "name": "Line1046_1_0_normals",
      "componentType": 5126,
      "count": 160,
      "min": [
        -1,
        -0.6459108591079712,
        -0.8146918416023254
      ],
      "max": [
        1,
        0.6431991457939148,
        0.8150287866592407
      ],
      "type": "VEC3",
      "bufferView": 1,
      "byteOffset": 18624
    },
    {
      "name": "Line1046_1_0_texcoords",
      "componentType": 5126,
      "count": 160,
      "min": [
        -1.4218000173568726,
        -2.8961000442504883
      ],
      "max": [
        2.5025999546051025,
        3.8961000442504883
      ],
      "type": "VEC2",
      "bufferView": 2,
      "byteOffset": 12416
    },
    {
      "name": "Line1046_1_0_indices",
      "componentType": 5123,
      "count": 240,
      "min": [
        0
      ],
      "max": [
        159
      ],
      "type": "SCALAR",
      "bufferView": 3,
      "byteOffset": 4992
    },
    {
      "name": "Line1045_1_0_positions",
      "componentType": 5126,
      "count": 120,
      "min": [
        -7.795499801635742,
        1.6496000289916992,
        -1.902899980545044
      ],
      "max": [
        6.632699966430664,
        4.126999855041504,
        2.261899948120117
      ],
      "type": "VEC3",
      "bufferView": 0,
      "byteOffset": 20544
    },
    {
      "name": "Line1045_1_0_normals",
      "componentType": 5126,
      "count": 120,
      "min": [
        -1,
        -0.866019070148468,
        -0.866019070148468
      ],
      "max": [
        1,
        0.866019070148468,
        0.866019070148468
      ],
      "type": "VEC3",
      "bufferView": 1,
      "byteOffset": 20544
    },
    {
      "name": "Line1045_1_0_texcoords",
      "componentType": 5126,
      "count": 120,
      "min": [
        0.00559999980032444,
        -2.8333001136779785
      ],
      "max": [
        0.9944000244140625,
        3.8333001136779785
      ],
      "type": "VEC2",
      "bufferView": 2,
      "byteOffset": 13696
    },
    {
      "name": "Line1045_1_0_indices",
      "componentType": 5123,
      "count": 180,
      "min": [
        0
      ],
      "max": [
        119
      ],
      "type": "SCALAR",
      "bufferView": 3,
      "byteOffset": 5472
    },
    {
      "name": "Rectangle1589_1_0_positions",
      "componentType": 5126,
      "count": 200,
      "min": [
        -7.785900115966797,
        0,
        -1.5128999948501587
      ],
      "max": [
        6.627799987792969,
        3.7925000190734863,
        1.930799961090088
      ],
      "type": "VEC3",
      "bufferView": 0,
      "byteOffset": 21984
    },
    {
      "name": "Rectangle1589_1_0_normals",
      "componentType": 5126,
      "count": 200,
      "min": [
        -1,
        -1,
        -1
      ],
      "max": [
        1,
        0,
        1
      ],
      "type": "VEC3",
      "bufferView": 1,
      "byteOffset": 21984
    },
    {
      "name": "Rectangle1589_1_0_texcoords",
      "componentType": 5126,
      "count": 200,
      "min": [
        -0.005100000184029341,
        -3.45740008354187
      ],
      "max": [
        1.0051000118255615,
        4.457399845123291
      ],
      "type": "VEC2",
      "bufferView": 2,
      "byteOffset": 14656
    },
    {
      "name": "Rectangle1589_1_0_indices",
      "componentType": 5123,
      "count": 300,
      "min": [
        0
      ],
      "max": [
        199
      ],
      "type": "SCALAR",
      "bufferView": 3,
      "byteOffset": 5832
    }
  ],
  "asset": {
    "generator": "obj2gltf",
    "version": "2.0"
  },
  "buffers": [
    {
      "name": "1",
      "byteLength": 525448,
      "uri": "data:application/octet-stream;base64,"
    }
  ],
  "bufferViews": [
    {
      "name": "bufferView_0",
      "buffer": 0,
      "byteLength": 24384,
      "byteOffset": 0,
      "byteStride": 12,
      "target": 34962
    },
    {
      "name": "bufferView_1",
      "buffer": 0,
      "byteLength": 24384,
      "byteOffset": 24384,
      "byteStride": 12,
      "target": 34962
    },
    {
      "name": "bufferView_2",
      "buffer": 0,
      "byteLength": 16256,
      "byteOffset": 48768,
      "byteStride": 8,
      "target": 34962
    },
    {
      "name": "bufferView_3",
      "buffer": 0,
      "byteLength": 6432,
      "byteOffset": 65024,
      "target": 34963
    },
    {
      "buffer": 0,
      "byteOffset": 71456,
      "byteLength": 21139
    },
    {
      "buffer": 0,
      "byteOffset": 92595,
      "byteLength": 432852
    }
  ],
  "images": [
    {
      "name": "07",
      "mimeType": "image/jpeg",
      "bufferView": 4
    },
    {
      "name": "3d66Model-12013176-files-6",
      "mimeType": "image/jpeg",
      "bufferView": 5
    }
  ],
  "materials": [
    {
      "name": "13___Default",
      "pbrMetallicRoughness": {
        "baseColorTexture": {
          "index": 0
        },
        "baseColorFactor": [
          1,
          1,
          1,
          1
        ],
        "metallicFactor": 0,
        "roughnessFactor": 0.972
      },
      "emissiveFactor": [
        0,
        0,
        0
      ],
      "alphaMode": "OPAQUE",
      "doubleSided": false
    },
    {
      "name": "21___Default",
      "pbrMetallicRoughness": {
        "baseColorTexture": {
          "index": 1
        },
        "baseColorFactor": [
          1,
          1,
          1,
          1
        ],
        "metallicFactor": 0,
        "roughnessFactor": 0.958
      },
      "emissiveFactor": [
        0,
        0,
        0
      ],
      "alphaMode": "OPAQUE",
      "doubleSided": false
    }
  ],
  "meshes": [
    {
      "name": "Line1044_1",
      "primitives": [
        {
          "attributes": {
            "POSITION": 0,
            "NORMAL": 1,
            "TEXCOORD_0": 2
          },
          "indices": 3,
          "material": 0,
          "mode": 4
        }
      ]
    },
    {
      "name": "Rectangle1590_1",
      "primitives": [
        {
          "attributes": {
            "POSITION": 4,
            "NORMAL": 5,
            "TEXCOORD_0": 6
          },
          "indices": 7,
          "material": 0,
          "mode": 4
        },
        {
          "attributes": {
            "POSITION": 8,
            "NORMAL": 9,
            "TEXCOORD_0": 10
          },
          "indices": 11,
          "material": 1,
          "mode": 4
        }
      ]
    },
    {
      "name": "Line1046_1",
      "primitives": [
        {
          "attributes": {
            "POSITION": 12,
            "NORMAL": 13,
            "TEXCOORD_0": 14
          },
          "indices": 15,
          "material": 0,
          "mode": 4
        }
      ]
    },
    {
      "name": "Line1045_1",
      "primitives": [
        {
          "attributes": {
            "POSITION": 16,
            "NORMAL": 17,
            "TEXCOORD_0": 18
          },
          "indices": 19,
          "material": 0,
          "mode": 4
        }
      ]
    },
    {
      "name": "Rectangle1589_1",
      "primitives": [
        {
          "attributes": {
            "POSITION": 20,
            "NORMAL": 21,
            "TEXCOORD_0": 22
          },
          "indices": 23,
          "material": 0,
          "mode": 4
        }
      ]
    }
  ],
  "nodes": [
    {
      "name": "Line1044",
      "mesh": 0
    },
    {
      "name": "Rectangle1590",
      "mesh": 1
    },
    {
      "name": "Line1046",
      "mesh": 2
    },
    {
      "name": "Line1045",
      "mesh": 3
    },
    {
      "name": "Rectangle1589",
      "mesh": 4
    }
  ],
  "samplers": [
    {
      "magFilter": 9729,
      "minFilter": 9986,
      "wrapS": 10497,
      "wrapT": 10497
    }
  ],
  "scene": 0,
  "scenes": [
    {
      "nodes": [
        0,
        1,
        2,
        3,
        4
      ]
    }
  ],
  "textures": [
    {
      "name": "07",
      "sampler": 0,
      "source": 0
    },
    {
      "name": "3d66Model-12013176-files-6",
      "sampler": 0,
      "source": 1
    }
  ]
}
