{
    "asset": {
        "generator": "FBX2glTF v0.9.7",
        "version": "2.0"
    },
    "scene": 0,
    "buffers": [
        {
            "byteLength": 408192,
            "uri": "buffer.bin"
        }
    ],
    "bufferViews": [
        {
            "buffer": 0,
            "byteLength": 644,
            "byteOffset": 0
        },
        {
            "buffer": 0,
            "byteLength": 1932,
            "byteOffset": 644
        },
        {
            "buffer": 0,
            "byteLength": 2576,
            "byteOffset": 2576
        },
        {
            "buffer": 0,
            "byteLength": 17280,
            "byteOffset": 5152,
            "target": 34963
        },
        {
            "buffer": 0,
            "byteLength": 95772,
            "byteOffset": 22432,
            "target": 34962
        },
        {
            "buffer": 0,
            "byteLength": 95772,
            "byteOffset": 118204,
            "target": 34962
        },
        {
            "buffer": 0,
            "byteLength": 63848,
            "byteOffset": 213976,
            "target": 34962
        },
        {
            "buffer": 0,
            "byteLength": 11328,
            "byteOffset": 277824,
            "target": 34963
        },
        {
            "buffer": 0,
            "byteLength": 29472,
            "byteOffset": 289152,
            "target": 34962
        },
        {
            "buffer": 0,
            "byteLength": 29472,
            "byteOffset": 318624,
            "target": 34962
        },
        {
            "buffer": 0,
            "byteLength": 19648,
            "byteOffset": 348096,
            "target": 34962
        },
        {
            "buffer": 0,
            "byteLength": 2304,
            "byteOffset": 367744,
            "target": 34963
        },
        {
            "buffer": 0,
            "byteLength": 13824,
            "byteOffset": 370048,
            "target": 34962
        },
        {
            "buffer": 0,
            "byteLength": 13824,
            "byteOffset": 383872,
            "target": 34962
        },
        {
            "buffer": 0,
            "byteLength": 9216,
            "byteOffset": 397696,
            "target": 34962
        },
        {
            "buffer": 0,
            "byteLength": 192,
            "byteOffset": 406912,
            "target": 34963
        },
        {
            "buffer": 0,
            "byteLength": 408,
            "byteOffset": 407104,
            "target": 34962
        },
        {
            "buffer": 0,
            "byteLength": 408,
            "byteOffset": 407512,
            "target": 34962
        },
        {
            "buffer": 0,
            "byteLength": 272,
            "byteOffset": 407920,
            "target": 34962
        }
    ],
    "scenes": [
        {
            "name": "Root Scene",
            "nodes": [
                0
            ]
        }
    ],
    "accessors": [
        {
            "componentType": 5126,
            "type": "SCALAR",
            "count": 161,
            "bufferView": 0,
            "byteOffset": 0,
            "min": [
                0.0
            ],
            "max": [
                6.66666650772095
            ]
        },
        {
            "componentType": 5126,
            "type": "VEC3",
            "count": 161,
            "bufferView": 1,
            "byteOffset": 0
        },
        {
            "componentType": 5126,
            "type": "VEC4",
            "count": 161,
            "bufferView": 2,
            "byteOffset": 0
        },
        {
            "componentType": 5123,
            "type": "SCALAR",
            "count": 8640,
            "bufferView": 3,
            "byteOffset": 0
        },
        {
            "componentType": 5126,
            "type": "VEC3",
            "count": 7981,
            "bufferView": 4,
            "byteOffset": 0,
            "min": [
                -0.027132784947753,
                -0.0231578014791012,
                -0.00286330538801849
            ],
            "max": [
                0.0148231396451592,
                0.0238672588020563,
                0.00224040751345456
            ]
        },
        {
            "componentType": 5126,
            "type": "VEC3",
            "count": 7981,
            "bufferView": 5,
            "byteOffset": 0
        },
        {
            "componentType": 5126,
            "type": "VEC2",
            "count": 7981,
            "bufferView": 6,
            "byteOffset": 0
        },
        {
            "componentType": 5123,
            "type": "SCALAR",
            "count": 5664,
            "bufferView": 7,
            "byteOffset": 0
        },
        {
            "componentType": 5126,
            "type": "VEC3",
            "count": 2456,
            "bufferView": 8,
            "byteOffset": 0,
            "min": [
                0.00479070469737053,
                -0.0365020632743835,
                -0.00303749344311655
            ],
            "max": [
                0.00938735622912645,
                0.0365020632743835,
                0.00597834400832653
            ]
        },
        {
            "componentType": 5126,
            "type": "VEC3",
            "count": 2456,
            "bufferView": 9,
            "byteOffset": 0
        },
        {
            "componentType": 5126,
            "type": "VEC2",
            "count": 2456,
            "bufferView": 10,
            "byteOffset": 0
        },
        {
            "componentType": 5123,
            "type": "SCALAR",
            "count": 1152,
            "bufferView": 11,
            "byteOffset": 0
        },
        {
            "componentType": 5126,
            "type": "VEC3",
            "count": 1152,
            "bufferView": 12,
            "byteOffset": 0,
            "min": [
                -0.0316574983298779,
                -0.0266120042651892,
                -0.00260747037827969
            ],
            "max": [
                0.0174794401973486,
                0.0279650054872036,
                0.00284170522354543
            ]
        },
        {
            "componentType": 5126,
            "type": "VEC3",
            "count": 1152,
            "bufferView": 13,
            "byteOffset": 0
        },
        {
            "componentType": 5126,
            "type": "VEC2",
            "count": 1152,
            "bufferView": 14,
            "byteOffset": 0
        },
        {
            "componentType": 5123,
            "type": "SCALAR",
            "count": 96,
            "bufferView": 15,
            "byteOffset": 0
        },
        {
            "componentType": 5126,
            "type": "VEC3",
            "count": 34,
            "bufferView": 16,
            "byteOffset": 0,
            "min": [
                -0.0245684720575809,
                0.00881050806492567,
                -0.00597834400832653
            ],
            "max": [
                0.0245684720575809,
                0.0335329212248325,
                -0.0034677917137742
            ]
        },
        {
            "componentType": 5126,
            "type": "VEC3",
            "count": 34,
            "bufferView": 17,
            "byteOffset": 0
        },
        {
            "componentType": 5126,
            "type": "VEC2",
            "count": 34,
            "bufferView": 18,
            "byteOffset": 0
        }
    ],
    "images": [
        {
            "name": "7496742files1.jpg",
            "uri": "7496742files1.jpg"
        }
    ],
    "samplers": [
        {}
    ],
    "textures": [
        {
            "name": "Diffuse Texture",
            "sampler": 0,
            "source": 0
        }
    ],
    "materials": [
        {
            "name": "Mat3d66-7496742-1-42917",
            "alphaMode": "OPAQUE",
            "extras": {
                "fromFBX": {
                    "shadingModel": "Phong",
                    "isTruePBR": false
                }
            },
            "pbrMetallicRoughness": {
                "baseColorTexture": {
                    "index": 0,
                    "texCoord": 0
                },
                "baseColorFactor": [
                    1.0,
                    1.0,
                    1.0,
                    1.0
                ],
                "metallicFactor": 0.400000005960464,
                "roughnessFactor": 0.806901276111603
            }
        },
        {
            "name": "3d66-1071723510",
            "alphaMode": "OPAQUE",
            "extras": {
                "fromFBX": {
                    "shadingModel": "Phong",
                    "isTruePBR": false
                }
            },
            "pbrMetallicRoughness": {
                "baseColorFactor": [
                    0.52549022436142,
                    0.0705882385373116,
                    0.0705882385373116,
                    1.0
                ],
                "metallicFactor": 0.400000005960464,
                "roughnessFactor": 0.70710676908493
            }
        }
    ],
    "meshes": [
        {
            "name": "网格001",
            "primitives": [
                {
                    "material": 0,
                    "mode": 4,
                    "attributes": {
                        "NORMAL": 5,
                        "POSITION": 4,
                        "TEXCOORD_0": 6
                    },
                    "indices": 3
                },
                {
                    "material": 1,
                    "mode": 4,
                    "attributes": {
                        "NORMAL": 13,
                        "POSITION": 12,
                        "TEXCOORD_0": 14
                    },
                    "indices": 11
                }
            ]
        },
        {
            "name": "Obj3d66-7496742-1-452",
            "primitives": [
                {
                    "material": 0,
                    "mode": 4,
                    "attributes": {
                        "NORMAL": 9,
                        "POSITION": 8,
                        "TEXCOORD_0": 10
                    },
                    "indices": 7
                },
                {
                    "material": 1,
                    "mode": 4,
                    "attributes": {
                        "NORMAL": 17,
                        "POSITION": 16,
                        "TEXCOORD_0": 18
                    },
                    "indices": 15
                }
            ]
        }
    ],
    "animations": [
        {
            "name": "Take 001",
            "channels": [
                {
                    "sampler": 0,
                    "target": {
                        "node": 2,
                        "path": "translation"
                    }
                },
                {
                    "sampler": 1,
                    "target": {
                        "node": 2,
                        "path": "rotation"
                    }
                }
            ],
            "samplers": [
                {
                    "input": 0,
                    "interpolation": "LINEAR",
                    "output": 1
                },
                {
                    "input": 0,
                    "interpolation": "LINEAR",
                    "output": 2
                }
            ]
        }
    ],
    "nodes": [
        {
            "name": "RootNode",
            "translation": [
                0.0,
                0.0,
                0.0
            ],
            "rotation": [
                0.0,
                0.0,
                0.0,
                1.0
            ],
            "scale": [
                1.0,
                1.0,
                1.0
            ],
            "children": [
                1
            ]
        },
        {
            "name": "组001",
            "translation": [
                0.0,
                0.0,
                0.0
            ],
            "rotation": [
                -0.70710676908493,
                -0.0,
                0.0,
                0.70710676908493
            ],
            "scale": [
                63.6608200073242,
                63.6608200073242,
                63.6608200073242
            ],
            "children": [
                2,
                3
            ]
        },
        {
            "name": "网格001",
            "translation": [
                -0.00938737764954567,
                0.0866616442799568,
                1.90132319927216
            ],
            "rotation": [
                0.707106828689575,
                0.0,
                0.0,
                0.707106709480286
            ],
            "scale": [
                26.4349613189697,
                26.4349613189697,
                26.4349613189697
            ],
            "mesh": 0
        },
        {
            "name": "Obj3d66-7496742-1-452",
            "translation": [
                -0.196785598993301,
                -0.00372741743922234,
                0.964930653572083
            ],
            "rotation": [
                0.707106828689575,
                0.0,
                0.0,
                0.707106709480286
            ],
            "scale": [
                26.4349613189697,
                26.4349613189697,
                26.4349613189697
            ],
            "mesh": 1
        }
    ]
}